<svg xmlns="http://www.w3.org/2000/svg" version="1.1" xmlns:xlink="http://www.w3.org/1999/xlink" xmlns:svgjs="http://svgjs.com/svgjs" width="1920" height="1080" preserveAspectRatio="none" viewBox="0 0 1920 1080"><g mask="url(&quot;#SvgjsMask1030&quot;)" fill="none"><rect width="1920" height="1080" x="0" y="0" fill="rgba(72, 29, 89, 1)"></rect><path d="M108 1080L1188 0L2035.5 0L955.5 1080z" fill="url(#SvgjsLinearGradient1031)"></path><path d="M732.6 1080L1812.6 0L2028.6 0L948.6 1080z" fill="url(#SvgjsLinearGradient1031)"></path><path d="M1824 1080L744 0L169.5 0L1249.5 1080z" fill="url(#SvgjsLinearGradient1032)"></path><path d="M1213.4 1080L133.4000000000001 0L-174.0999999999999 0L905.9000000000001 1080z" fill="url(#SvgjsLinearGradient1032)"></path><path d="M1242.300036329405 1080L1920 402.300036329405L1920 1080z" fill="url(#SvgjsLinearGradient1031)"></path><path d="M0 1080L677.699963670595 1080L 0 402.300036329405z" fill="url(#SvgjsLinearGradient1032)"></path></g><defs><mask id="SvgjsMask1030"><rect width="1920" height="1080" fill="#ffffff"></rect></mask><linearGradient x1="0%" y1="100%" x2="100%" y2="0%" id="SvgjsLinearGradient1031"><stop stop-color="rgba(252, 206, 160, 1)" offset="0"></stop><stop stop-opacity="0" stop-color="rgba(252, 206, 160, 1)" offset="0.66"></stop></linearGradient><linearGradient x1="100%" y1="100%" x2="0%" y2="0%" id="SvgjsLinearGradient1032"><stop stop-color="rgba(252, 206, 160, 1)" offset="0"></stop><stop stop-opacity="0" stop-color="rgba(252, 206, 160, 1)" offset="0.66"></stop></linearGradient></defs></svg>